<mxfile host="app.diagrams.net" modified="2020-12-03T08:21:58.442Z" agent="5.0 (Macintosh; Intel Mac OS X 10_15_6) AppleWebKit/537.36 (KHTML, like Gecko) Chrome/86.0.4240.198 Safari/537.36" etag="GqnuktHlsBufg-FTWdiA" version="13.10.6" type="github">
  <diagram name="Page-1" id="42789a77-a242-8287-6e28-9cd8cfd52e62">
    <mxGraphModel dx="1426" dy="772" grid="1" gridSize="10" guides="1" tooltips="1" connect="1" arrows="1" fold="1" page="1" pageScale="1" pageWidth="1100" pageHeight="850" background="#ffffff" math="0" shadow="0">
      <root>
        <mxCell id="0" />
        <mxCell id="1" parent="0" />
        <mxCell id="G1pbNIQmNdtEg0W2NMKJ-12" style="edgeStyle=orthogonalEdgeStyle;rounded=0;orthogonalLoop=1;jettySize=auto;html=1;strokeColor=#EA6B66;" edge="1" parent="1" source="G1pbNIQmNdtEg0W2NMKJ-1" target="G1pbNIQmNdtEg0W2NMKJ-11">
          <mxGeometry relative="1" as="geometry" />
        </mxCell>
        <mxCell id="G1pbNIQmNdtEg0W2NMKJ-13" style="edgeStyle=orthogonalEdgeStyle;rounded=0;orthogonalLoop=1;jettySize=auto;html=1;entryX=0.5;entryY=0;entryDx=0;entryDy=0;exitX=0.5;exitY=1;exitDx=0;exitDy=0;strokeColor=#EA6B66;" edge="1" parent="1" source="G1pbNIQmNdtEg0W2NMKJ-1" target="G1pbNIQmNdtEg0W2NMKJ-9">
          <mxGeometry relative="1" as="geometry">
            <Array as="points">
              <mxPoint x="841" y="160" />
              <mxPoint x="1001" y="160" />
            </Array>
          </mxGeometry>
        </mxCell>
        <mxCell id="G1pbNIQmNdtEg0W2NMKJ-14" style="edgeStyle=orthogonalEdgeStyle;rounded=0;orthogonalLoop=1;jettySize=auto;html=1;entryX=0.5;entryY=0;entryDx=0;entryDy=0;strokeColor=#EA6B66;" edge="1" parent="1" source="G1pbNIQmNdtEg0W2NMKJ-1" target="G1pbNIQmNdtEg0W2NMKJ-10">
          <mxGeometry relative="1" as="geometry">
            <Array as="points">
              <mxPoint x="841" y="160" />
              <mxPoint x="681" y="160" />
            </Array>
          </mxGeometry>
        </mxCell>
        <mxCell id="G1pbNIQmNdtEg0W2NMKJ-1" value="&lt;font color=&quot;#ffffff&quot;&gt;&lt;span style=&quot;font-size: 18px&quot;&gt;DEV&lt;/span&gt;&lt;br&gt;&lt;font style=&quot;font-size: 14px&quot;&gt;Release Branch&lt;/font&gt;&lt;/font&gt;" style="rounded=1;whiteSpace=wrap;html=1;fillColor=#EA6B66;strokeColor=#EA6B66;" vertex="1" parent="1">
          <mxGeometry x="781" y="40" width="120" height="80" as="geometry" />
        </mxCell>
        <mxCell id="G1pbNIQmNdtEg0W2NMKJ-6" style="edgeStyle=orthogonalEdgeStyle;rounded=0;orthogonalLoop=1;jettySize=auto;html=1;exitX=0.5;exitY=1;exitDx=0;exitDy=0;entryX=0.5;entryY=0;entryDx=0;entryDy=0;strokeColor=#660066;" edge="1" parent="1" source="G1pbNIQmNdtEg0W2NMKJ-2" target="G1pbNIQmNdtEg0W2NMKJ-3">
          <mxGeometry relative="1" as="geometry" />
        </mxCell>
        <mxCell id="G1pbNIQmNdtEg0W2NMKJ-7" style="edgeStyle=orthogonalEdgeStyle;rounded=0;orthogonalLoop=1;jettySize=auto;html=1;strokeColor=#660066;" edge="1" parent="1" source="G1pbNIQmNdtEg0W2NMKJ-2" target="G1pbNIQmNdtEg0W2NMKJ-4">
          <mxGeometry relative="1" as="geometry" />
        </mxCell>
        <mxCell id="G1pbNIQmNdtEg0W2NMKJ-8" style="edgeStyle=orthogonalEdgeStyle;rounded=0;orthogonalLoop=1;jettySize=auto;html=1;entryX=0.5;entryY=0;entryDx=0;entryDy=0;exitX=0.5;exitY=1;exitDx=0;exitDy=0;strokeColor=#660066;" edge="1" parent="1" source="G1pbNIQmNdtEg0W2NMKJ-2" target="G1pbNIQmNdtEg0W2NMKJ-5">
          <mxGeometry relative="1" as="geometry">
            <Array as="points">
              <mxPoint x="259" y="160" />
              <mxPoint x="419" y="160" />
            </Array>
          </mxGeometry>
        </mxCell>
        <mxCell id="G1pbNIQmNdtEg0W2NMKJ-2" value="&lt;font color=&quot;#ffffff&quot;&gt;&lt;font&gt;&lt;span style=&quot;font-size: 18px&quot;&gt;TEST&lt;br&gt;&lt;/span&gt;&lt;/font&gt;&lt;font style=&quot;font-size: 14px&quot;&gt;Release Branch&lt;/font&gt;&lt;/font&gt;" style="rounded=1;whiteSpace=wrap;html=1;fillColor=#660066;strokeColor=#660066;" vertex="1" parent="1">
          <mxGeometry x="199" y="40" width="120" height="80" as="geometry" />
        </mxCell>
        <mxCell id="G1pbNIQmNdtEg0W2NMKJ-20" style="edgeStyle=orthogonalEdgeStyle;rounded=0;orthogonalLoop=1;jettySize=auto;html=1;entryX=0.062;entryY=0.3;entryDx=0;entryDy=0;entryPerimeter=0;" edge="1" parent="1" source="G1pbNIQmNdtEg0W2NMKJ-3" target="G1pbNIQmNdtEg0W2NMKJ-15">
          <mxGeometry relative="1" as="geometry">
            <Array as="points">
              <mxPoint x="99" y="320" />
              <mxPoint x="197" y="320" />
            </Array>
          </mxGeometry>
        </mxCell>
        <mxCell id="G1pbNIQmNdtEg0W2NMKJ-24" style="edgeStyle=orthogonalEdgeStyle;rounded=0;orthogonalLoop=1;jettySize=auto;html=1;exitX=0;exitY=0;exitDx=0;exitDy=0;strokeColor=#0000FF;strokeWidth=2;fillColor=#0000CC;" edge="1" parent="1" source="G1pbNIQmNdtEg0W2NMKJ-3">
          <mxGeometry relative="1" as="geometry">
            <mxPoint x="199" y="100" as="targetPoint" />
            <Array as="points">
              <mxPoint x="57" y="100" />
              <mxPoint x="199" y="100" />
            </Array>
          </mxGeometry>
        </mxCell>
        <mxCell id="G1pbNIQmNdtEg0W2NMKJ-3" value="&lt;font style=&quot;font-size: 18px&quot;&gt;test/DK-xx1&lt;/font&gt;" style="ellipse;whiteSpace=wrap;html=1;" vertex="1" parent="1">
          <mxGeometry x="39" y="200" width="120" height="80" as="geometry" />
        </mxCell>
        <mxCell id="G1pbNIQmNdtEg0W2NMKJ-21" style="edgeStyle=orthogonalEdgeStyle;rounded=0;orthogonalLoop=1;jettySize=auto;html=1;entryX=0.538;entryY=0.125;entryDx=0;entryDy=0;entryPerimeter=0;" edge="1" parent="1" source="G1pbNIQmNdtEg0W2NMKJ-4" target="G1pbNIQmNdtEg0W2NMKJ-15">
          <mxGeometry relative="1" as="geometry" />
        </mxCell>
        <mxCell id="G1pbNIQmNdtEg0W2NMKJ-23" style="edgeStyle=orthogonalEdgeStyle;orthogonalLoop=1;jettySize=auto;html=1;exitX=1;exitY=0;exitDx=0;exitDy=0;fillColor=#e1d5e7;strokeColor=#0000FF;strokeWidth=2;curved=1;" edge="1" parent="1" source="G1pbNIQmNdtEg0W2NMKJ-4">
          <mxGeometry relative="1" as="geometry">
            <mxPoint x="301" y="120" as="targetPoint" />
            <Array as="points">
              <mxPoint x="301" y="120" />
            </Array>
          </mxGeometry>
        </mxCell>
        <mxCell id="G1pbNIQmNdtEg0W2NMKJ-4" value="&lt;span style=&quot;color: rgb(0 , 0 , 0) ; font-family: &amp;#34;helvetica&amp;#34; ; font-size: 18px ; font-style: normal ; font-weight: 400 ; letter-spacing: normal ; text-align: center ; text-indent: 0px ; text-transform: none ; word-spacing: 0px ; background-color: rgb(248 , 249 , 250) ; display: inline ; float: none&quot;&gt;test/DK-xx2&lt;/span&gt;" style="ellipse;whiteSpace=wrap;html=1;" vertex="1" parent="1">
          <mxGeometry x="199" y="200" width="120" height="80" as="geometry" />
        </mxCell>
        <mxCell id="G1pbNIQmNdtEg0W2NMKJ-22" style="edgeStyle=orthogonalEdgeStyle;rounded=0;orthogonalLoop=1;jettySize=auto;html=1;entryX=0.88;entryY=0.25;entryDx=0;entryDy=0;entryPerimeter=0;" edge="1" parent="1" source="G1pbNIQmNdtEg0W2NMKJ-5" target="G1pbNIQmNdtEg0W2NMKJ-15">
          <mxGeometry relative="1" as="geometry">
            <Array as="points">
              <mxPoint x="419" y="320" />
              <mxPoint x="303" y="320" />
            </Array>
          </mxGeometry>
        </mxCell>
        <mxCell id="G1pbNIQmNdtEg0W2NMKJ-25" style="edgeStyle=orthogonalEdgeStyle;rounded=0;orthogonalLoop=1;jettySize=auto;html=1;exitX=1;exitY=0;exitDx=0;exitDy=0;strokeColor=#0000FF;strokeWidth=2;fillColor=#0000CC;" edge="1" parent="1" source="G1pbNIQmNdtEg0W2NMKJ-5">
          <mxGeometry relative="1" as="geometry">
            <mxPoint x="320" y="100" as="targetPoint" />
            <Array as="points">
              <mxPoint x="461" y="100" />
              <mxPoint x="320" y="100" />
            </Array>
          </mxGeometry>
        </mxCell>
        <mxCell id="G1pbNIQmNdtEg0W2NMKJ-5" value="&lt;span style=&quot;color: rgb(0 , 0 , 0) ; font-family: &amp;#34;helvetica&amp;#34; ; font-size: 18px ; font-style: normal ; font-weight: 400 ; letter-spacing: normal ; text-align: center ; text-indent: 0px ; text-transform: none ; word-spacing: 0px ; background-color: rgb(248 , 249 , 250) ; display: inline ; float: none&quot;&gt;test/DK-xx3&lt;/span&gt;" style="ellipse;whiteSpace=wrap;html=1;" vertex="1" parent="1">
          <mxGeometry x="359" y="200" width="120" height="80" as="geometry" />
        </mxCell>
        <mxCell id="G1pbNIQmNdtEg0W2NMKJ-18" style="edgeStyle=orthogonalEdgeStyle;rounded=0;orthogonalLoop=1;jettySize=auto;html=1;entryX=0.88;entryY=0.25;entryDx=0;entryDy=0;entryPerimeter=0;" edge="1" parent="1" source="G1pbNIQmNdtEg0W2NMKJ-9" target="G1pbNIQmNdtEg0W2NMKJ-16">
          <mxGeometry relative="1" as="geometry">
            <Array as="points">
              <mxPoint x="1002" y="320" />
              <mxPoint x="890" y="320" />
            </Array>
          </mxGeometry>
        </mxCell>
        <mxCell id="G1pbNIQmNdtEg0W2NMKJ-28" style="edgeStyle=orthogonalEdgeStyle;rounded=0;orthogonalLoop=1;jettySize=auto;html=1;exitX=1;exitY=0;exitDx=0;exitDy=0;entryX=1;entryY=0.75;entryDx=0;entryDy=0;strokeColor=#0000FF;strokeWidth=2;fillColor=#0000CC;" edge="1" parent="1" source="G1pbNIQmNdtEg0W2NMKJ-9" target="G1pbNIQmNdtEg0W2NMKJ-1">
          <mxGeometry relative="1" as="geometry">
            <Array as="points">
              <mxPoint x="1041" y="212" />
              <mxPoint x="1041" y="100" />
            </Array>
          </mxGeometry>
        </mxCell>
        <mxCell id="G1pbNIQmNdtEg0W2NMKJ-9" value="&lt;span style=&quot;color: rgb(0 , 0 , 0) ; font-family: &amp;#34;helvetica&amp;#34; ; font-size: 18px ; font-style: normal ; font-weight: 400 ; letter-spacing: normal ; text-align: center ; text-indent: 0px ; text-transform: none ; word-spacing: 0px ; background-color: rgb(248 , 249 , 250) ; display: inline ; float: none&quot;&gt;dev/DK-xx3&lt;/span&gt;" style="ellipse;whiteSpace=wrap;html=1;" vertex="1" parent="1">
          <mxGeometry x="942" y="200" width="120" height="80" as="geometry" />
        </mxCell>
        <mxCell id="G1pbNIQmNdtEg0W2NMKJ-19" style="edgeStyle=orthogonalEdgeStyle;rounded=0;orthogonalLoop=1;jettySize=auto;html=1;entryX=0.07;entryY=0.4;entryDx=0;entryDy=0;entryPerimeter=0;" edge="1" parent="1" source="G1pbNIQmNdtEg0W2NMKJ-10" target="G1pbNIQmNdtEg0W2NMKJ-16">
          <mxGeometry relative="1" as="geometry">
            <Array as="points">
              <mxPoint x="681" y="320" />
              <mxPoint x="785" y="320" />
            </Array>
          </mxGeometry>
        </mxCell>
        <mxCell id="G1pbNIQmNdtEg0W2NMKJ-26" style="edgeStyle=orthogonalEdgeStyle;rounded=0;orthogonalLoop=1;jettySize=auto;html=1;exitX=0;exitY=0;exitDx=0;exitDy=0;strokeColor=#0000FF;strokeWidth=2;fillColor=#0000CC;jumpStyle=sharp;labelBorderColor=none;" edge="1" parent="1" source="G1pbNIQmNdtEg0W2NMKJ-10">
          <mxGeometry relative="1" as="geometry">
            <mxPoint x="781" y="100" as="targetPoint" />
            <Array as="points">
              <mxPoint x="641" y="212" />
              <mxPoint x="641" y="100" />
              <mxPoint x="781" y="100" />
            </Array>
          </mxGeometry>
        </mxCell>
        <mxCell id="G1pbNIQmNdtEg0W2NMKJ-10" value="&lt;font style=&quot;font-size: 18px&quot;&gt;dev/DK-xx1&lt;/font&gt;" style="ellipse;whiteSpace=wrap;html=1;" vertex="1" parent="1">
          <mxGeometry x="621" y="200" width="120" height="80" as="geometry" />
        </mxCell>
        <mxCell id="G1pbNIQmNdtEg0W2NMKJ-17" style="edgeStyle=orthogonalEdgeStyle;rounded=0;orthogonalLoop=1;jettySize=auto;html=1;" edge="1" parent="1" source="G1pbNIQmNdtEg0W2NMKJ-11" target="G1pbNIQmNdtEg0W2NMKJ-16">
          <mxGeometry relative="1" as="geometry" />
        </mxCell>
        <mxCell id="G1pbNIQmNdtEg0W2NMKJ-27" style="edgeStyle=orthogonalEdgeStyle;rounded=0;orthogonalLoop=1;jettySize=auto;html=1;exitX=1;exitY=0;exitDx=0;exitDy=0;entryX=0.85;entryY=1.025;entryDx=0;entryDy=0;entryPerimeter=0;strokeColor=#0000FF;strokeWidth=2;fillColor=#0000CC;" edge="1" parent="1" source="G1pbNIQmNdtEg0W2NMKJ-11" target="G1pbNIQmNdtEg0W2NMKJ-1">
          <mxGeometry relative="1" as="geometry">
            <Array as="points">
              <mxPoint x="883" y="150" />
              <mxPoint x="883" y="150" />
            </Array>
          </mxGeometry>
        </mxCell>
        <mxCell id="G1pbNIQmNdtEg0W2NMKJ-11" value="&lt;span style=&quot;color: rgb(0 , 0 , 0) ; font-family: &amp;#34;helvetica&amp;#34; ; font-size: 18px ; font-style: normal ; font-weight: 400 ; letter-spacing: normal ; text-align: center ; text-indent: 0px ; text-transform: none ; word-spacing: 0px ; background-color: rgb(248 , 249 , 250) ; display: inline ; float: none&quot;&gt;dev/DK-xx2&lt;/span&gt;" style="ellipse;whiteSpace=wrap;html=1;" vertex="1" parent="1">
          <mxGeometry x="781" y="200" width="120" height="80" as="geometry" />
        </mxCell>
        <mxCell id="G1pbNIQmNdtEg0W2NMKJ-30" style="edgeStyle=orthogonalEdgeStyle;orthogonalLoop=1;jettySize=auto;html=1;entryX=0.13;entryY=0.77;entryDx=0;entryDy=0;entryPerimeter=0;strokeWidth=2;fillColor=#0000CC;exitX=-0.033;exitY=0.588;exitDx=0;exitDy=0;exitPerimeter=0;rounded=1;strokeColor=#660066;" edge="1" parent="1" source="G1pbNIQmNdtEg0W2NMKJ-2" target="G1pbNIQmNdtEg0W2NMKJ-29">
          <mxGeometry relative="1" as="geometry">
            <Array as="points">
              <mxPoint x="30" y="87" />
              <mxPoint x="30" y="662" />
            </Array>
          </mxGeometry>
        </mxCell>
        <mxCell id="G1pbNIQmNdtEg0W2NMKJ-15" value="&lt;font style=&quot;font-size: 18px&quot; color=&quot;#ffffff&quot;&gt;TEST&lt;/font&gt;" style="ellipse;shape=cloud;whiteSpace=wrap;html=1;fillColor=#67AB9F;strokeColor=#67AB9F;" vertex="1" parent="1">
          <mxGeometry x="189" y="520" width="130" height="80" as="geometry" />
        </mxCell>
        <mxCell id="G1pbNIQmNdtEg0W2NMKJ-46" style="edgeStyle=orthogonalEdgeStyle;rounded=1;jumpStyle=sharp;orthogonalLoop=1;jettySize=auto;html=1;entryX=0.96;entryY=0.7;entryDx=0;entryDy=0;entryPerimeter=0;strokeWidth=2;fillColor=#0000CC;exitX=1;exitY=0.5;exitDx=0;exitDy=0;strokeColor=#EA6B66;" edge="1" parent="1" source="G1pbNIQmNdtEg0W2NMKJ-1" target="G1pbNIQmNdtEg0W2NMKJ-29">
          <mxGeometry relative="1" as="geometry">
            <Array as="points">
              <mxPoint x="1070" y="80" />
              <mxPoint x="1070" y="656" />
            </Array>
          </mxGeometry>
        </mxCell>
        <mxCell id="G1pbNIQmNdtEg0W2NMKJ-16" value="&lt;font color=&quot;#ffffff&quot;&gt;&lt;span style=&quot;font-size: 18px&quot;&gt;DEVELOP&lt;/span&gt;&lt;/font&gt;" style="ellipse;shape=cloud;whiteSpace=wrap;html=1;fillColor=#7EA6E0;strokeColor=#7EA6E0;" vertex="1" parent="1">
          <mxGeometry x="776" y="520" width="130" height="80" as="geometry" />
        </mxCell>
        <mxCell id="G1pbNIQmNdtEg0W2NMKJ-34" style="edgeStyle=orthogonalEdgeStyle;curved=1;orthogonalLoop=1;jettySize=auto;html=1;strokeWidth=2;fillColor=#0000CC;strokeColor=#00CC00;" edge="1" parent="1" source="G1pbNIQmNdtEg0W2NMKJ-29" target="G1pbNIQmNdtEg0W2NMKJ-33">
          <mxGeometry relative="1" as="geometry" />
        </mxCell>
        <mxCell id="G1pbNIQmNdtEg0W2NMKJ-38" style="edgeStyle=orthogonalEdgeStyle;orthogonalLoop=1;jettySize=auto;html=1;entryX=0;entryY=0;entryDx=0;entryDy=0;strokeWidth=2;fillColor=#0000CC;strokeColor=#666666;rounded=1;" edge="1" parent="1" source="G1pbNIQmNdtEg0W2NMKJ-29" target="G1pbNIQmNdtEg0W2NMKJ-36">
          <mxGeometry relative="1" as="geometry">
            <Array as="points">
              <mxPoint x="560" y="357" />
            </Array>
          </mxGeometry>
        </mxCell>
        <mxCell id="G1pbNIQmNdtEg0W2NMKJ-39" style="edgeStyle=orthogonalEdgeStyle;orthogonalLoop=1;jettySize=auto;html=1;entryX=1;entryY=0;entryDx=0;entryDy=0;strokeWidth=2;fillColor=#0000CC;strokeColor=#666666;rounded=1;" edge="1" parent="1" source="G1pbNIQmNdtEg0W2NMKJ-29" target="G1pbNIQmNdtEg0W2NMKJ-37">
          <mxGeometry relative="1" as="geometry">
            <Array as="points">
              <mxPoint x="530" y="357" />
            </Array>
          </mxGeometry>
        </mxCell>
        <mxCell id="G1pbNIQmNdtEg0W2NMKJ-29" value="&lt;font style=&quot;font-size: 18px&quot; color=&quot;#ffffff&quot;&gt;STAGING&lt;/font&gt;" style="ellipse;shape=cloud;whiteSpace=wrap;html=1;strokeColor=#7EA6E0;fillColor=#00CC00;" vertex="1" parent="1">
          <mxGeometry x="480" y="600" width="160" height="80" as="geometry" />
        </mxCell>
        <mxCell id="G1pbNIQmNdtEg0W2NMKJ-45" style="edgeStyle=orthogonalEdgeStyle;rounded=1;jumpStyle=sharp;orthogonalLoop=1;jettySize=auto;html=1;entryX=1;entryY=0.25;entryDx=0;entryDy=0;strokeWidth=2;fillColor=#0000CC;strokeColor=#CC0000;" edge="1" parent="1" source="G1pbNIQmNdtEg0W2NMKJ-33" target="G1pbNIQmNdtEg0W2NMKJ-1">
          <mxGeometry relative="1" as="geometry">
            <Array as="points">
              <mxPoint x="1080" y="1010" />
              <mxPoint x="1080" y="60" />
            </Array>
          </mxGeometry>
        </mxCell>
        <mxCell id="G1pbNIQmNdtEg0W2NMKJ-47" style="edgeStyle=orthogonalEdgeStyle;rounded=1;jumpStyle=sharp;orthogonalLoop=1;jettySize=auto;html=1;strokeWidth=2;fillColor=#0000CC;entryX=0;entryY=0.25;entryDx=0;entryDy=0;strokeColor=#CC0000;" edge="1" parent="1" source="G1pbNIQmNdtEg0W2NMKJ-33" target="G1pbNIQmNdtEg0W2NMKJ-2">
          <mxGeometry relative="1" as="geometry">
            <mxPoint x="30" y="550" as="targetPoint" />
            <Array as="points">
              <mxPoint x="20" y="1000" />
              <mxPoint x="20" y="60" />
            </Array>
          </mxGeometry>
        </mxCell>
        <mxCell id="G1pbNIQmNdtEg0W2NMKJ-33" value="&lt;font style=&quot;font-size: 14px&quot; color=&quot;#ffffff&quot;&gt;PRODUCTION&lt;/font&gt;" style="ellipse;shape=cloud;whiteSpace=wrap;html=1;strokeColor=#7EA6E0;fillColor=#CC0000;" vertex="1" parent="1">
          <mxGeometry x="480" y="960" width="160" height="80" as="geometry" />
        </mxCell>
        <mxCell id="G1pbNIQmNdtEg0W2NMKJ-40" style="edgeStyle=orthogonalEdgeStyle;jumpStyle=sharp;orthogonalLoop=1;jettySize=auto;html=1;entryX=0.07;entryY=0.4;entryDx=0;entryDy=0;entryPerimeter=0;strokeWidth=2;fillColor=#0000CC;strokeColor=#EA6B66;rounded=1;" edge="1" parent="1" source="G1pbNIQmNdtEg0W2NMKJ-36" target="G1pbNIQmNdtEg0W2NMKJ-16">
          <mxGeometry relative="1" as="geometry">
            <Array as="points">
              <mxPoint x="720" y="552" />
            </Array>
          </mxGeometry>
        </mxCell>
        <mxCell id="G1pbNIQmNdtEg0W2NMKJ-41" style="edgeStyle=orthogonalEdgeStyle;jumpStyle=sharp;orthogonalLoop=1;jettySize=auto;html=1;exitX=0.5;exitY=1;exitDx=0;exitDy=0;entryX=0.738;entryY=0.175;entryDx=0;entryDy=0;entryPerimeter=0;strokeWidth=2;fillColor=#0000CC;strokeColor=#3333FF;rounded=1;" edge="1" parent="1" source="G1pbNIQmNdtEg0W2NMKJ-36" target="G1pbNIQmNdtEg0W2NMKJ-29">
          <mxGeometry relative="1" as="geometry" />
        </mxCell>
        <mxCell id="G1pbNIQmNdtEg0W2NMKJ-36" value="&lt;font style=&quot;font-size: 18px&quot; color=&quot;#ffffff&quot;&gt;hotfix DEV&lt;br&gt;&lt;/font&gt;" style="ellipse;whiteSpace=wrap;html=1;strokeColor=#EA6B66;fillColor=#EA6B66;" vertex="1" parent="1">
          <mxGeometry x="610" y="345" width="120" height="80" as="geometry" />
        </mxCell>
        <mxCell id="G1pbNIQmNdtEg0W2NMKJ-42" style="edgeStyle=orthogonalEdgeStyle;jumpStyle=sharp;orthogonalLoop=1;jettySize=auto;html=1;strokeWidth=2;fillColor=#0000CC;strokeColor=#660066;rounded=1;" edge="1" parent="1" source="G1pbNIQmNdtEg0W2NMKJ-37">
          <mxGeometry relative="1" as="geometry">
            <mxPoint x="320" y="560" as="targetPoint" />
            <Array as="points">
              <mxPoint x="370" y="560" />
            </Array>
          </mxGeometry>
        </mxCell>
        <mxCell id="G1pbNIQmNdtEg0W2NMKJ-43" style="edgeStyle=orthogonalEdgeStyle;jumpStyle=sharp;orthogonalLoop=1;jettySize=auto;html=1;entryX=0.15;entryY=0.213;entryDx=0;entryDy=0;entryPerimeter=0;strokeColor=#3333FF;strokeWidth=2;fillColor=#0000CC;rounded=1;exitX=0.5;exitY=1;exitDx=0;exitDy=0;" edge="1" parent="1" source="G1pbNIQmNdtEg0W2NMKJ-37" target="G1pbNIQmNdtEg0W2NMKJ-29">
          <mxGeometry relative="1" as="geometry" />
        </mxCell>
        <mxCell id="G1pbNIQmNdtEg0W2NMKJ-37" value="&lt;span style=&quot;color: rgb(255 , 255 , 255) ; font-family: &amp;#34;helvetica&amp;#34; ; font-size: 18px ; font-style: normal ; font-weight: 400 ; letter-spacing: normal ; text-align: center ; text-indent: 0px ; text-transform: none ; word-spacing: 0px ; display: inline ; float: none&quot;&gt;hotfix TEST&lt;/span&gt;" style="ellipse;whiteSpace=wrap;html=1;fillColor=#660066;strokeColor=#660066;" vertex="1" parent="1">
          <mxGeometry x="359" y="345" width="120" height="80" as="geometry" />
        </mxCell>
        <mxCell id="G1pbNIQmNdtEg0W2NMKJ-49" style="edgeStyle=orthogonalEdgeStyle;rounded=1;jumpStyle=sharp;orthogonalLoop=1;jettySize=auto;html=1;entryX=0.55;entryY=0.95;entryDx=0;entryDy=0;entryPerimeter=0;strokeWidth=2;fillColor=#0000CC;strokeColor=#9AC7BF;" edge="1" parent="1" source="G1pbNIQmNdtEg0W2NMKJ-48" target="G1pbNIQmNdtEg0W2NMKJ-15">
          <mxGeometry relative="1" as="geometry" />
        </mxCell>
        <mxCell id="G1pbNIQmNdtEg0W2NMKJ-52" style="edgeStyle=orthogonalEdgeStyle;rounded=1;jumpStyle=sharp;orthogonalLoop=1;jettySize=auto;html=1;entryX=0.31;entryY=0.8;entryDx=0;entryDy=0;entryPerimeter=0;strokeWidth=2;fillColor=#0000CC;strokeColor=#9AC7BF;" edge="1" parent="1" source="G1pbNIQmNdtEg0W2NMKJ-48" target="G1pbNIQmNdtEg0W2NMKJ-29">
          <mxGeometry relative="1" as="geometry" />
        </mxCell>
        <mxCell id="G1pbNIQmNdtEg0W2NMKJ-55" style="edgeStyle=orthogonalEdgeStyle;rounded=1;jumpStyle=sharp;orthogonalLoop=1;jettySize=auto;html=1;entryX=0.25;entryY=0.25;entryDx=0;entryDy=0;entryPerimeter=0;strokeWidth=2;fillColor=#0000CC;strokeColor=#9AC7BF;" edge="1" parent="1" source="G1pbNIQmNdtEg0W2NMKJ-48" target="G1pbNIQmNdtEg0W2NMKJ-33">
          <mxGeometry relative="1" as="geometry">
            <Array as="points">
              <mxPoint x="139" y="920" />
              <mxPoint x="520" y="920" />
            </Array>
          </mxGeometry>
        </mxCell>
        <mxCell id="G1pbNIQmNdtEg0W2NMKJ-48" value="&lt;font style=&quot;font-size: 18px&quot; color=&quot;#ffffff&quot;&gt;hotfix PROD&lt;/font&gt;" style="ellipse;whiteSpace=wrap;html=1;strokeColor=#A680B8;fillColor=#9AC7BF;" vertex="1" parent="1">
          <mxGeometry x="79" y="760" width="120" height="80" as="geometry" />
        </mxCell>
        <mxCell id="G1pbNIQmNdtEg0W2NMKJ-51" style="edgeStyle=orthogonalEdgeStyle;rounded=1;jumpStyle=sharp;orthogonalLoop=1;jettySize=auto;html=1;entryX=0.55;entryY=0.95;entryDx=0;entryDy=0;entryPerimeter=0;strokeWidth=2;fillColor=#0000CC;strokeColor=#A9C4EB;" edge="1" parent="1" source="G1pbNIQmNdtEg0W2NMKJ-50" target="G1pbNIQmNdtEg0W2NMKJ-16">
          <mxGeometry relative="1" as="geometry" />
        </mxCell>
        <mxCell id="G1pbNIQmNdtEg0W2NMKJ-53" style="edgeStyle=orthogonalEdgeStyle;rounded=1;jumpStyle=sharp;orthogonalLoop=1;jettySize=auto;html=1;entryX=0.8;entryY=0.888;entryDx=0;entryDy=0;entryPerimeter=0;strokeColor=#A9C4EB;strokeWidth=2;fillColor=#0000CC;" edge="1" parent="1" source="G1pbNIQmNdtEg0W2NMKJ-50" target="G1pbNIQmNdtEg0W2NMKJ-29">
          <mxGeometry relative="1" as="geometry" />
        </mxCell>
        <mxCell id="G1pbNIQmNdtEg0W2NMKJ-54" style="edgeStyle=orthogonalEdgeStyle;rounded=1;jumpStyle=sharp;orthogonalLoop=1;jettySize=auto;html=1;entryX=0.88;entryY=0.25;entryDx=0;entryDy=0;entryPerimeter=0;strokeColor=#A9C4EB;strokeWidth=2;fillColor=#0000CC;" edge="1" parent="1" source="G1pbNIQmNdtEg0W2NMKJ-50" target="G1pbNIQmNdtEg0W2NMKJ-33">
          <mxGeometry relative="1" as="geometry">
            <Array as="points">
              <mxPoint x="961" y="920" />
              <mxPoint x="621" y="920" />
            </Array>
          </mxGeometry>
        </mxCell>
        <mxCell id="G1pbNIQmNdtEg0W2NMKJ-50" value="&lt;span style=&quot;color: rgb(255 , 255 , 255) ; font-size: 18px&quot;&gt;hotfix PROD&lt;/span&gt;" style="ellipse;whiteSpace=wrap;html=1;strokeColor=#A9C4EB;fillColor=#A9C4EB;" vertex="1" parent="1">
          <mxGeometry x="901" y="760" width="120" height="80" as="geometry" />
        </mxCell>
      </root>
    </mxGraphModel>
  </diagram>
</mxfile>
